<?xml version="1.0" standalone="no"?>
<!DOCTYPE svg PUBLIC "-//W3C//DTD SVG 20010904//EN"
 "http://www.w3.org/TR/2001/REC-SVG-20010904/DTD/svg10.dtd">
<svg version="1.0" xmlns="http://www.w3.org/2000/svg"
 width="180.000000pt" height="180.000000pt" viewBox="0 0 180.000000 180.000000"
 preserveAspectRatio="xMidYMid meet">

<g transform="translate(0.000000,180.000000) scale(0.100000,-0.100000)"
fill="#000000" stroke="none">
<path d="M844 1596 c-39 -17 -71 -58 -85 -109 -32 -118 99 -218 219 -168 32
13 47 39 15 27 -15 -6 -15 -4 2 14 10 11 23 20 29 20 6 0 4 -4 -4 -10 -8 -5
-11 -12 -7 -17 10 -10 28 18 22 34 -2 7 1 12 8 10 8 -1 13 15 15 48 4 68 -22
113 -78 143 -50 25 -91 27 -136 8z m103 -22 c-3 -3 -12 -4 -19 -1 -8 3 -5 6 6
6 11 1 17 -2 13 -5z m53 -188 c-7 -7 -13 -7 -20 0 -6 6 -3 10 10 10 13 0 16
-4 10 -10z"/>
<path d="M278 1224 c-38 -20 -38 -58 0 -78 16 -8 53 -18 83 -22 64 -8 85 -20
68 -40 -15 -18 -70 -18 -95 1 -21 16 -94 20 -94 5 0 -42 175 -67 240 -33 41
21 51 57 23 79 -10 8 -29 11 -41 9 -13 -3 -21 -2 -18 3 3 6 -19 13 -48 16 -43
6 -58 13 -71 33 -11 16 -12 22 -4 17 7 -4 35 -6 61 -5 29 1 48 -2 48 -8 0 -6
18 -11 41 -11 45 0 49 16 8 37 -34 18 -167 16 -201 -3z m79 0 c-3 -3 -12 -4
-19 -1 -8 3 -5 6 6 6 11 1 17 -2 13 -5z m-12 -82 c-3 -3 -11 0 -18 7 -9 10 -8
11 6 5 10 -3 15 -9 12 -12z m72 -8 c-3 -3 -12 -4 -19 -1 -8 3 -5 6 6 6 11 1
17 -2 13 -5z m-127 -54 c0 -5 -4 -10 -10 -10 -5 0 -10 5 -10 10 0 6 5 10 10
10 6 0 10 -4 10 -10z"/>
<path d="M578 1156 c-5 -126 -15 -116 123 -116 107 0 119 2 119 18 0 15 -10
17 -77 17 -76 0 -78 1 -78 25 0 24 1 25 68 22 62 -3 67 -1 67 18 0 18 -6 20
-70 20 -63 0 -70 2 -70 20 0 18 7 20 75 20 68 0 75 2 75 20 0 19 -7 20 -114
20 l-115 0 -3 -84z"/>
<path d="M879 1203 c0 -21 -1 -65 -2 -98 l-1 -60 39 -3 40 -3 -3 71 c-2 38 0
70 5 70 4 0 21 -16 36 -36 25 -30 31 -33 45 -22 15 12 16 11 3 -5 -12 -16 -11
-21 14 -47 25 -27 35 -30 87 -30 l58 0 0 100 0 100 -40 0 -40 0 0 -71 c0 -58
-3 -70 -14 -66 -8 3 -17 3 -19 -1 -2 -4 -2 -1 0 6 2 8 -12 30 -31 50 -19 21
-43 47 -54 60 -15 17 -30 22 -71 22 l-51 0 -1 -37z"/>
<path d="M1296 1139 l-67 -99 39 0 c28 0 44 6 53 19 12 17 28 20 96 23 45 1
85 -1 90 -5 4 -5 -1 -5 -11 -1 -16 6 -17 4 -7 -14 9 -18 21 -22 56 -22 l45 0
-63 98 -63 97 -50 2 -50 1 -68 -99z m129 50 c-3 -9 4 -28 16 -42 23 -31 19
-34 -48 -39 l-42 -3 24 42 c29 48 31 61 10 43 -13 -11 -14 -10 -9 4 7 19 16
20 33 4 11 -11 12 -8 6 12 -5 19 -4 21 4 10 6 -8 8 -22 6 -31z m-72 -4 c-3 -9
-8 -14 -10 -11 -3 3 -2 9 2 15 9 16 15 13 8 -4z m-33 -55 c-11 -16 -26 -33
-32 -36 -7 -4 1 9 16 29 34 44 46 50 16 7z m-9 -56 c-11 -15 -21 -23 -21 -17
0 11 33 53 38 48 3 -2 -5 -16 -17 -31z"/>
<path d="M170 920 l0 -50 209 0 c115 0 216 -3 225 -6 9 -3 16 -16 16 -28 0
-28 -12 -51 -139 -268 -60 -104 -100 -182 -95 -189 4 -7 3 -9 -4 -5 -6 3 -13
2 -16 -2 -5 -9 71 -89 77 -81 25 31 125 224 120 232 -3 5 -2 7 4 4 5 -3 28 27
51 67 45 78 49 91 30 80 -8 -4 -10 -3 -5 2 5 5 13 9 18 9 8 0 169 268 169 281
0 2 -148 4 -330 4 l-330 0 0 -50z m575 -20 c3 -5 1 -10 -4 -10 -6 0 -11 5 -11
10 0 6 2 10 4 10 3 0 8 -4 11 -10z m-115 -20 c0 -5 -7 -7 -15 -4 -8 4 -15 8
-15 10 0 2 7 4 15 4 8 0 15 -4 15 -10z m-103 -275 c-7 -13 -14 -20 -15 -14 -2
5 2 16 8 24 18 21 20 18 7 -10z m45 -7 c-8 -8 -9 -4 -5 13 4 13 8 18 11 10 2
-7 -1 -18 -6 -23z m-97 -77 c-3 -5 -1 -12 5 -16 5 -3 10 -12 10 -18 0 -7 -6
-4 -14 5 -7 10 -17 14 -22 10 -4 -4 -2 1 5 11 14 18 26 24 16 8z m-25 -165 c0
-2 -8 -10 -17 -17 -16 -13 -17 -12 -4 4 13 16 21 21 21 13z"/>
<path d="M991 948 c7 -13 24 -41 38 -63 14 -22 26 -42 27 -45 5 -23 18 -39 27
-33 6 3 7 1 3 -5 -4 -7 12 -44 35 -84 93 -162 120 -208 181 -314 l64 -112 42
34 41 35 -73 122 c-195 328 -200 336 -188 363 l12 24 220 0 220 0 0 50 0 50
-330 0 -331 0 12 -22z m36 -20 c-3 -8 -6 -5 -6 6 -1 11 2 17 5 13 3 -3 4 -12
1 -19z m116 -68 c-3 -12 -8 -19 -11 -16 -5 6 5 36 12 36 2 0 2 -9 -1 -20z m24
-12 c-3 -8 -6 -5 -6 6 -1 11 2 17 5 13 3 -3 4 -12 1 -19z m-20 -80 c-3 -8 -6
-5 -6 6 -1 11 2 17 5 13 3 -3 4 -12 1 -19z m70 -110 c-3 -8 -6 -5 -6 6 -1 11
2 17 5 13 3 -3 4 -12 1 -19z m133 -237 c0 -4 -6 -15 -13 -25 -12 -16 -13 -15
-11 11 1 15 2 29 3 31 2 6 21 -9 21 -17z m65 -31 c3 -5 1 -10 -4 -10 -6 0 -11
5 -11 10 0 6 2 10 4 10 3 0 8 -4 11 -10z m-10 -40 c4 -6 -1 -7 -11 -3 -13 5
-15 3 -9 -7 5 -9 4 -11 -4 -6 -6 4 -9 12 -6 17 8 12 22 12 30 -1z"/>
<path d="M866 790 c-21 -33 -34 -65 -30 -72 4 -6 3 -8 -3 -5 -5 4 -16 -6 -24
-21 -8 -15 -33 -59 -56 -98 -24 -39 -43 -76 -43 -82 0 -6 -4 -12 -8 -14 -9 -3
-87 -140 -85 -148 1 -3 5 -14 9 -25 l7 -20 -17 20 c-15 17 -17 18 -12 2 3 -10
2 -16 -3 -13 -8 5 -61 -72 -61 -87 0 -7 90 -41 93 -36 9 13 39 63 57 95 12 20
50 85 86 146 53 88 64 112 54 123 -7 8 -17 12 -22 9 -6 -4 -5 3 1 15 13 23 23
29 15 8 -3 -8 2 -19 10 -26 13 -11 17 -9 27 13 7 14 20 28 29 31 34 11 45 0
106 -110 12 -22 44 -76 70 -120 27 -44 55 -92 63 -107 8 -15 18 -25 22 -22 5
3 7 -1 4 -8 -2 -7 2 -22 10 -32 15 -20 16 -20 60 2 39 19 44 25 36 41 -40 74
-345 577 -352 579 -5 2 -7 8 -3 13 3 5 3 9 1 9 -2 0 -21 -27 -41 -60z m63 -9
c7 -13 6 -18 -4 -18 -7 0 -11 6 -8 14 3 7 0 13 -6 13 -6 0 -11 5 -11 11 0 14
18 2 29 -20z m-29 -6 c0 -2 -10 -9 -22 -15 -22 -11 -22 -10 -4 4 21 17 26 19
26 11z m17 -141 c-3 -3 -12 -4 -19 -1 -8 3 -5 6 6 6 11 1 17 -2 13 -5z m-123
-32 c3 -5 -1 -9 -9 -9 -8 0 -12 4 -9 9 3 4 7 8 9 8 2 0 6 -4 9 -8z m-9 -48 c0
-12 -4 -26 -9 -31 -5 -4 -6 -3 -2 4 4 7 2 21 -3 31 -7 14 -6 19 2 19 7 0 13
-10 12 -23z m242 -26 c-3 -8 -6 -5 -6 6 -1 11 2 17 5 13 3 -3 4 -12 1 -19z
m-277 -4 c0 -8 -19 -13 -24 -6 -3 5 1 9 9 9 8 0 15 -2 15 -3z m-13 -86 c-3 -7
-5 -2 -5 12 0 14 2 19 5 13 2 -7 2 -19 0 -25z m-25 -15 c-3 -16 -7 -22 -10
-15 -4 13 4 42 11 42 2 0 2 -12 -1 -27z m453 -52 c-9 -15 -44 -9 -38 7 5 11 7
11 14 1 4 -8 11 -10 15 -6 4 4 0 15 -9 25 -10 10 -17 22 -17 27 0 4 9 -4 21
-19 11 -14 18 -30 14 -35z m-484 -48 c-6 -10 -11 -13 -11 -5 0 7 -5 10 -12 6
-7 -4 -8 -3 -4 5 4 6 12 8 18 5 8 -5 9 -1 4 12 -5 14 -4 16 4 7 9 -8 9 -16 1
-30z m540 -100 c-12 -20 -14 -14 -5 12 4 9 9 14 11 11 3 -2 0 -13 -6 -23z"/>
</g>
</svg>
